<?xml version="1.0" encoding="utf-8"?>
<!-- Generator: Adobe Illustrator 17.0.0, SVG Export Plug-In . SVG Version: 6.00 Build 0)  -->
<!DOCTYPE svg PUBLIC "-//W3C//DTD SVG 1.1//EN" "http://www.w3.org/Graphics/SVG/1.1/DTD/svg11.dtd">
<svg version="1.1" id="Layer_1" xmlns="http://www.w3.org/2000/svg" xmlns:xlink="http://www.w3.org/1999/xlink" x="0px" y="0px"
	 width="518.531px" height="217.735px" viewBox="0 0 518.531 217.735" enable-background="new 0 0 518.531 217.735"
	 xml:space="preserve">
<path fill="#EAEAE9" d="M14.242,128.702c-2.458-1.701-4.442-3.92-5.953-6.663c-1.515-2.737-2.601-5.713-3.26-8.93
	c-0.664-3.21-0.992-6.422-0.992-9.638c0-8.881,0.425-17.527,1.275-25.938c0.851-8.407,1.56-16.868,2.127-25.372
	c0.567-8.504,0.66-17.054,0.284-25.655C7.343,17.951,6.031,9.157,3.783,0.132C2.527,0.053,1.268,0,0,0
	c2.268,9.072,3.588,17.909,3.969,26.506c0.376,8.602,0.284,17.151-0.283,25.655C3.119,60.666,2.41,69.126,1.559,77.533
	c-0.85,8.411-1.275,17.057-1.275,25.938c0,3.216,0.329,6.428,0.993,9.638c0.659,3.216,1.744,6.193,3.26,8.93
	c1.511,2.743,3.495,4.962,5.953,6.663c2.454,1.701,5.479,2.551,9.071,2.551c0.571,0,1.063-0.052,1.507-0.139
	C18.448,130.826,16.164,130.033,14.242,128.702z"/>
<g>
	<path fill="#EAEAE9" d="M53.929,95.251c2.077-0.754,4.013-1.795,5.811-3.119c1.794-1.319,3.26-2.834,4.395-4.535
		c1.133-1.701,1.7-3.872,1.7-6.521c0-2.644-0.615-4.961-1.842-6.945c-1.231-1.985-2.977-2.976-5.245-2.976
		c-0.686,0-1.34,0.096-1.974,0.255c1.419,0.401,2.58,1.294,3.465,2.721c1.228,1.984,1.843,4.301,1.843,6.945
		c0,2.649-0.567,4.819-1.7,6.521c-1.135,1.701-2.601,3.216-4.395,4.535c-1.798,1.325-3.734,2.366-5.811,3.119
		c-0.785,0.285-1.542,0.543-2.299,0.801c0.045,0.394,0.099,0.789,0.099,1.183C49.863,96.668,51.847,96.008,53.929,95.251z"/>
	<path fill="#EAEAE9" d="M54.393,103.682c-2.014-0.142-3.87-0.494-5.566-1.061c0.067,0.312,0.153,0.592,0.229,0.89
		c1.168,0.156,2.387,0.243,3.671,0.243C53.291,103.755,53.838,103.709,54.393,103.682z"/>
	<path fill="#EAEAE9" d="M34.652,118.497c-4.536-4.913-6.994-11.525-7.371-19.844c0-11.339,2.976-20.645,8.93-27.923
		c5.671-6.928,13.294-10.52,22.823-10.85c-0.764-0.04-1.541-0.064-2.338-0.064c-10.206,0-18.285,3.641-24.238,10.914
		c-5.954,7.278-8.93,16.584-8.93,27.923c0.377,8.319,2.835,14.931,7.371,19.844c4.536,4.916,10.866,7.556,18.993,7.936
		c1.217,0.064,2.427,0.046,3.634-0.009C45.458,126.021,39.166,123.388,34.652,118.497z"/>
	<path fill="#EAEAE9" d="M77.957,104.889c-0.566,0-1.373,0.616-2.409,1.843c-1.04,1.231-2.365,2.507-3.969,3.827
		c-1.607,1.324-3.451,2.507-5.527,3.544c-1.003,0.501-2.076,0.829-3.209,1.001c2.592,0.352,4.914,0.022,6.961-1.001
		c2.077-1.037,3.92-2.22,5.527-3.544c1.5-1.235,2.745-2.428,3.753-3.585c0-0.035,0.007-0.065,0.007-0.101
		C79.091,105.554,78.71,104.889,77.957,104.889z"/>
</g>
<g>
	<path fill="#EAEAE9" d="M124.233,103.33c0-1.604-0.098-3.119-0.284-4.536c-0.19-1.417-0.424-2.693-0.709-3.827
		c-0.283-1.133-0.806-1.701-1.559-1.701c-0.93,0-1.86,0.155-2.79,0.438c0.256,0.284,0.456,0.703,0.596,1.263
		c0.284,1.134,0.519,2.41,0.709,3.827c0.187,1.418,0.284,2.933,0.284,4.536c0,1.607,0.187,2.79,0.567,3.543
		c-1.325,2.082-3.167,3.686-5.527,4.819c-1.518,0.728-2.881,1.195-4.125,1.457c0.55,0.145,1.131,0.244,1.782,0.244
		c1.701,0,3.73-0.567,6.095-1.701c2.361-1.134,4.203-2.737,5.527-4.819C124.42,106.121,124.233,104.938,124.233,103.33z"/>
	<path fill="#EAEAE9" d="M92.132,78.525c0.449-0.15,0.944-0.296,1.473-0.439c-0.749-0.658-1.123-1.553-1.123-2.679
		c0-1.701,0.186-3.446,0.568-5.245c0.376-1.794,1.133-3.446,2.267-4.961c1.134-1.51,2.737-2.737,4.819-3.685
		c1.751-0.794,4-1.236,6.691-1.362c-0.794-0.033-1.546-0.056-2.222-0.056c-3.403,0-6.144,0.474-8.222,1.418
		c-2.081,0.948-3.685,2.175-4.819,3.685c-1.134,1.515-1.892,3.167-2.268,4.961c-0.381,1.799-0.568,3.544-0.568,5.245
		c0,1.134,0.377,2.034,1.135,2.693C90.617,78.764,91.374,78.906,92.132,78.525z"/>
	<path fill="#EAEAE9" d="M107.298,76.683c2.737,0.284,5.103,1.04,7.087,2.268c1.984,1.231,2.976,3.167,2.976,5.812
		c0,0.738-0.162,1.247-0.456,1.573c0.226,0.04,0.465,0.072,0.666,0.128c0.661,0.19,1.369,0.283,2.126,0.283
		c0.943,0,1.417-0.659,1.417-1.984c0-2.645-0.991-4.581-2.976-5.812c-1.984-1.227-4.35-1.984-7.087-2.268
		c-1.644-0.169-3.306-0.187-4.982-0.084C106.479,76.624,106.89,76.641,107.298,76.683z"/>
	<path fill="#EAEAE9" d="M138.975,128.417c-1.325-0.38-2.742-1.133-4.253-2.267c-1.514-1.135-2.976-2.787-4.393-4.962
		c-1.418-2.17-2.6-5.147-3.544-8.93c-0.801,1.232-1.732,2.373-2.722,3.474c0.735,2.167,1.567,4.008,2.513,5.456
		c1.418,2.175,2.879,3.827,4.394,4.962c1.511,1.133,2.928,1.886,4.253,2.267c1.32,0.378,2.453,0.568,3.401,0.568
		c0.941,0,1.718-0.044,2.349-0.128C140.358,128.764,139.701,128.625,138.975,128.417z"/>
	<path fill="#EAEAE9" d="M91.349,121.615c-3.401-2.645-5.103-6.423-5.103-11.339c0-3.021,0.753-5.954,2.268-8.788
		c1.51-2.835,3.543-5.386,6.095-7.654c2.551-2.268,5.62-4.111,9.212-5.529c2.892-1.142,5.917-1.801,9.057-2.023
		c-0.448-0.062-0.929-0.103-1.47-0.103c-3.968,0-7.752,0.709-11.339,2.126c-3.593,1.417-6.662,3.261-9.213,5.529
		c-2.552,2.268-4.585,4.819-6.095,7.654c-1.515,2.835-2.268,5.767-2.268,8.788c0,4.917,1.702,8.695,5.103,11.339
		c3.401,2.648,7.463,3.969,12.189,3.969c0.625,0,1.246-0.03,1.866-0.079C97.724,125.195,94.289,123.903,91.349,121.615z"/>
</g>
<g>
	<path fill="#EAEAE9" d="M170.72,65.202c3.212-1.51,6.52-2.693,9.921-3.543c2.758-0.689,5.448-1.084,8.082-1.215
		c-0.619-0.039-1.255-0.06-1.913-0.06c-3.215,0-6.52,0.425-9.922,1.275c-1.955,0.489-3.877,1.1-5.77,1.809
		C171.019,64.02,170.894,64.594,170.72,65.202z"/>
	<path fill="#EAEAE9" d="M173.271,100.636c2.268-1.133,4.536-2.644,6.804-4.535c2.268-1.887,4.252-4.013,5.954-6.379
		c1.701-2.361,2.551-4.676,2.551-6.945c0-3.021-0.709-4.864-2.126-5.528c-1.417-0.659-3.167-0.992-5.244-0.992
		c-0.587,0-1.151,0.055-1.703,0.137c1.199,0.151,2.273,0.427,3.193,0.855c1.417,0.664,2.126,2.507,2.126,5.528
		c0,2.269-0.85,4.584-2.551,6.945c-1.702,2.366-3.685,4.492-5.954,6.379c-2.268,1.891-4.536,3.402-6.804,4.535
		c-1.08,0.54-2.046,0.943-2.911,1.226c0.321,0.293,0.729,0.476,1.278,0.476C169.206,102.338,171.003,101.771,173.271,100.636z"/>
	<path fill="#EAEAE9" d="M196.517,147.127c-2.267-1.514-4.443-3.542-6.519-6.095c-2.083-2.551-4.301-5.385-6.662-8.504
		c-2.365-3.119-4.917-6.519-7.654-10.205c-2.742-3.685-6.001-7.512-9.779-11.48c-0.816,0.163-1.445,0.848-1.906,1.991
		c2.995,3.259,5.653,6.426,7.932,9.489c2.737,3.686,5.289,7.086,7.654,10.205c2.361,3.119,4.58,5.954,6.662,8.504
		c2.077,2.553,4.253,4.581,6.52,6.095c2.268,2.079,5.006,2.977,8.221,2.693c0.268-0.023,0.522-0.077,0.787-0.109
		C199.805,149.386,198.049,148.534,196.517,147.127z"/>
	<path fill="#EAEAE9" d="M151.16,125.157c-2.649-2.36-3.969-5.429-3.969-9.213c0.187-2.835,0.66-7.229,1.417-13.182
		c0.753-5.953,1.369-12.141,1.843-18.568c0.469-6.423,0.66-12.518,0.567-18.285c-0.098-5.763-0.993-9.873-2.693-12.331
		c0.753,0,1.794-0.045,3.118-0.143c0.681-0.047,1.389-0.083,2.121-0.106c-0.54-0.012-1.069-0.036-1.621-0.036
		c-1.515,0-2.933,0.049-4.253,0.142c-1.324,0.098-2.364,0.143-3.118,0.143c1.7,2.458,2.595,6.568,2.692,12.331
		c0.093,5.767-0.097,11.862-0.566,18.285c-0.474,6.427-1.09,12.615-1.843,18.568c-0.757,5.953-1.231,10.347-1.417,13.182
		c0,3.784,1.32,6.853,3.97,9.213c2.644,2.361,5.195,3.544,7.654,3.544c1.124,0,2.04-0.021,2.822-0.056
		C155.713,128.386,153.472,127.222,151.16,125.157z"/>
</g>
<g>
	<path fill="#EAEAE9" d="M233.65,71.155c3.21-3.211,7.087-6.188,11.623-8.93c3.912-2.361,7.89-3.701,11.94-4.027
		c-0.768-0.054-1.372-0.083-1.807-0.083c-4.721,0-9.349,1.373-13.886,4.11c-3.079,1.861-5.829,3.841-8.299,5.918
		C233.431,69.069,233.592,70.052,233.65,71.155z"/>
	<path fill="#EAEAE9" d="M215.791,127.85c-1.891-0.946-3.403-2.453-4.536-4.534c-1.133-2.079-1.608-4.536-1.418-7.372
		c0.188-3.021,0.568-7.273,1.133-12.756c0.568-5.479,0.994-11.149,1.277-17.009c0.282-5.856,0.282-11.291,0-16.3
		c-0.284-5.005-1.183-8.549-2.694-10.631c1.791,0,3.806-0.035,6.021-0.107c-0.886-0.045-1.779-0.067-2.686-0.035
		c-2.648,0.097-5.008,0.142-7.087,0.142c1.511,2.082,2.412,5.625,2.695,10.631c0.281,5.009,0.281,10.444,0,16.3
		c-0.283,5.86-0.709,11.53-1.277,17.009c-0.568,5.483-0.948,9.735-1.135,12.756c-0.19,2.836,0.283,5.293,1.418,7.372
		c1.132,2.081,2.645,3.588,4.535,4.534c1.886,0.945,3.921,1.463,6.095,1.559c0.742,0.032,1.478-0.035,2.21-0.145
		C218.743,129.036,217.224,128.567,215.791,127.85z"/>
	<path fill="#EAEAE9" d="M262.703,144.009c-2.175-0.948-4.251-2.409-6.236-4.394c-1.982-1.984-3.64-4.491-4.957-7.511
		c-1.324-3.026-1.984-6.521-1.984-10.489c0-10.206,0-18.329,0-24.38c0-6.046-0.097-10.582-0.283-13.606
		c-0.191-3.021-0.426-4.962-0.708-5.812c-0.284-0.851-0.71-1.276-1.275-1.276c-0.685,0-1.548,0.359-2.575,1.049
		c0.031,0.078,0.068,0.141,0.097,0.227c0.283,0.85,0.519,2.79,0.709,5.812c0.188,3.025,0.285,7.56,0.285,13.606
		c0,6.051,0,14.174,0,24.38c0,3.969,0.658,7.463,1.982,10.489c1.32,3.02,2.976,5.527,4.958,7.511
		c1.986,1.984,4.062,3.445,6.235,4.394c2.17,0.943,4.205,1.417,6.096,1.417c0.57,0,1.01-0.102,1.389-0.252
		C265.238,144.947,263.998,144.571,262.703,144.009z"/>
</g>
<g>
	<path fill="#EAEAE9" d="M316.419,77.533c0.327-0.032,0.682-0.052,1.032-0.074c-0.558-0.029-1.118-0.069-1.667-0.069
		c-1.134,0-2.175,0.05-3.118,0.143c-0.091,0.009-0.17,0.012-0.259,0.019c0.372,0.08,0.852,0.122,1.461,0.122
		C314.623,77.675,315.471,77.63,316.419,77.533z"/>
	<path fill="#EAEAE9" d="M310.466,159.602c0.375-3.027,0.753-5.953,1.134-8.788c0.377-2.835,0.753-5.861,1.133-9.071
		c-1.795,1.466-3.211,2.968-4.301,4.505c-0.195,1.572-0.391,3.097-0.586,4.566c-0.234,1.742-0.466,3.532-0.698,5.346
		C307.853,157.44,308.95,158.59,310.466,159.602z"/>
	<path fill="#EAEAE9" d="M315.568,89.58c0-2.077-0.238-4.252-0.708-6.52c-0.454-2.178-1.401-3.995-2.811-5.479
		c-0.696,0.058-1.353,0.093-1.934,0.093c-0.948,0-1.609-0.093-1.984-0.284c1.511,1.516,2.502,3.403,2.977,5.67
		c0.469,2.268,0.708,4.443,0.708,6.52c0,6.051-0.9,10.773-2.693,14.174c-1.798,3.402-3.783,5.909-5.953,7.513
		c-2.174,1.607-4.208,2.6-6.094,2.977c-0.468,0.095-0.889,0.176-1.265,0.247c0.507,0.146,1.037,0.262,1.615,0.32
		c0.377,0,1.512-0.186,3.403-0.567c1.887-0.376,3.92-1.369,6.094-2.977c2.17-1.604,4.155-4.111,5.953-7.513
		C314.67,100.354,315.568,95.631,315.568,89.58z"/>
	<path fill="#EAEAE9" d="M329.317,77.391c-0.849-0.752-1.797-1.559-2.834-2.41c-1.042-0.85-2.365-1.652-3.969-2.409
		c-1.607-0.753-3.641-1.134-6.095-1.134c-0.592,0-1.182,0.06-1.772,0.1c1.586,0.155,2.963,0.496,4.114,1.034
		c1.603,0.757,2.926,1.56,3.969,2.409c1.036,0.851,1.984,1.657,2.834,2.41c0.85,0.758,1.843,1.135,2.977,1.135
		c0.498,0,1.159-0.136,1.951-0.386C330.076,77.955,329.681,77.715,329.317,77.391z"/>
	<path fill="#EAEAE9" d="M331.161,119.63c5.29-2.645,9.399-5.053,12.331-7.229c0.647-0.48,1.217-0.893,1.729-1.257
		c-0.092-0.69-0.354-1.268-0.806-1.719c-0.19-0.187-1.749,0.806-4.677,2.977c-2.153,1.597-4.946,3.321-8.368,5.171
		C331.299,118.261,331.23,118.931,331.161,119.63z"/>
	<path fill="#EAEAE9" d="M304.513,174.201c-2.267-1.417-4.253-3.217-5.953-5.388c-1.701-2.173-3.025-4.536-3.968-7.087
		c-0.949-2.551-1.418-5.058-1.418-7.513c0-3.783,0.801-7.135,2.409-10.063c1.604-2.931,3.496-5.434,5.669-7.512
		c2.171-2.082,4.395-3.782,6.663-5.103c2.268-1.323,4.154-2.365,5.67-3.119c0.186-2.082,0.326-4.295,0.426-6.661
		c0.091-2.362,0.14-4.771,0.14-7.23c-1.257,1.721-2.538,3.208-3.841,4.488c-0.023,0.91-0.018,1.846-0.053,2.742
		c-0.099,2.365-0.24,4.579-0.426,6.661c-1.517,0.753-3.403,1.795-5.67,3.119c-2.27,1.321-4.493,3.02-6.663,5.103
		c-2.174,2.078-4.065,4.581-5.67,7.512c-1.606,2.929-2.408,6.281-2.408,10.063c0,2.455,0.47,4.962,1.418,7.513
		c0.943,2.551,2.267,4.914,3.968,7.087c1.701,2.171,3.687,3.97,5.953,5.388c2.267,1.417,4.722,2.125,7.371,2.125
		c0.652,0,1.251-0.067,1.851-0.13C308.05,175.936,306.228,175.272,304.513,174.201z"/>
	<path fill="#EAEAE9" d="M291.205,125.767c-3.856-0.315-6.984-1.455-9.369-3.444c-2.835-2.36-5.01-5.054-6.521-8.079
		c-1.892-3.402-3.118-7.273-3.685-11.623c-1.325-5.289-1.231-10.817,0.282-16.585c1.511-5.761,4.062-11.056,7.655-15.874
		c3.587-4.819,7.938-8.832,13.039-12.047c4.581-2.881,9.54-4.461,14.882-4.757c-0.635-0.023-1.25-0.062-1.909-0.062
		c-6.051,0-11.623,1.608-16.726,4.82c-5.103,3.215-9.452,7.229-13.04,12.047c-3.593,4.819-6.143,10.113-7.654,15.874
		c-1.515,5.768-1.608,11.296-0.282,16.585c0.565,4.35,1.793,8.221,3.684,11.623c1.511,3.025,3.688,5.718,6.521,8.079
		c2.836,2.366,6.708,3.544,11.624,3.544C290.163,125.867,290.68,125.821,291.205,125.767z"/>
</g>
<path fill="#EAEAE9" d="M351.57,128.702c-2.459-1.701-4.442-3.92-5.953-6.663c-1.515-2.737-2.599-5.713-3.26-8.93
	c-0.665-3.21-0.992-6.422-0.992-9.638c0-8.881,0.425-17.527,1.275-25.938c0.852-8.407,1.559-16.868,2.127-25.372
	c0.565-8.504,0.66-17.054,0.283-25.655c-0.38-8.556-1.69-17.349-3.94-26.375C339.856,0.053,338.596,0,337.327,0
	c2.27,9.072,3.588,17.909,3.971,26.506c0.375,8.602,0.282,17.151-0.284,25.655c-0.567,8.504-1.274,16.964-2.127,25.372
	c-0.85,8.411-1.275,17.057-1.275,25.938c0,3.216,0.326,6.428,0.99,9.638c0.661,3.216,1.747,6.193,3.261,8.93
	c1.512,2.743,3.495,4.962,5.953,6.663c2.454,1.701,5.479,2.551,9.072,2.551c0.57,0,1.065-0.052,1.507-0.139
	C355.775,130.826,353.493,130.033,351.57,128.702z"/>
<g>
	<path fill="#EAEAE9" d="M368.79,53.437c2.834,2.552,6.237,3.827,10.205,3.827c0.658,0,1.294-0.043,1.918-0.107
		c-3.189-0.34-5.982-1.572-8.369-3.72c-2.835-2.551-4.252-5.621-4.252-9.212c0-3.588,1.417-6.662,4.252-9.214
		c2.387-2.147,5.18-3.379,8.369-3.719c-0.624-0.064-1.26-0.107-1.918-0.107c-3.968,0-7.371,1.275-10.205,3.826
		c-2.835,2.552-4.252,5.625-4.252,9.214C364.538,47.815,365.955,50.886,368.79,53.437z"/>
	<path fill="#EAEAE9" d="M372.543,125.157c-1.514-2.36-2.267-5.429-2.267-9.213c0.185-3.968,0.469-8.313,0.85-13.04
		c0.377-3.968,0.661-8.456,0.852-13.465c0.186-5.005,0.469-10.157,0.85-15.45c0-2.454-0.049-4.486-0.142-6.095
		c-0.098-1.604-0.382-3.211-0.851-4.819c-0.474-1.604-1.09-2.879-1.844-3.827c1.645,0,3.639-0.036,5.933-0.109
		c-0.903-0.044-1.814-0.064-2.74-0.032c-2.741,0.097-5.059,0.142-6.945,0.142c0.754,0.948,1.369,2.224,1.843,3.827
		c0.47,1.608,0.753,3.215,0.85,4.819c0.094,1.609,0.143,3.641,0.143,6.095c-0.38,5.293-0.665,10.445-0.851,15.45
		c-0.189,5.009-0.473,9.497-0.851,13.465c-0.38,4.727-0.665,9.072-0.851,13.04c0,3.784,0.754,6.853,2.268,9.213
		c1.511,2.361,4.629,3.544,9.355,3.544c0.956,0,1.746-0.017,2.455-0.042C376.605,128.454,373.909,127.293,372.543,125.157z"/>
</g>
<g>
	<path fill="#EAEAE9" d="M401.246,89.722c2.361,1.985,5.715,3.641,10.064,4.962c1.511,0.567,3.354,1.417,5.529,2.551
		c2.17,1.133,4.202,2.551,6.094,4.252c1.888,1.701,3.305,3.543,4.252,5.528c0.944,1.984,0.852,4.017-0.282,6.094
		c-0.758,1.702-1.701,3.216-2.835,4.536c-0.948,1.135-2.27,2.127-3.97,2.977c-1.228,0.615-2.713,1-4.435,1.17
		c0.532,0.063,1.082,0.106,1.67,0.106c2.643,0,4.819-0.426,6.518-1.277c1.702-0.85,3.023-1.841,3.971-2.977
		c1.134-1.319,2.077-2.834,2.835-4.536c1.134-2.077,1.227-4.11,0.282-6.094c-0.947-1.985-2.363-3.827-4.253-5.528
		c-1.892-1.702-3.923-3.119-6.093-4.252c-2.176-1.134-4.018-1.984-5.529-2.551c-4.349-1.32-7.703-2.976-10.064-4.962
		c-2.365-1.984-4.11-3.919-5.244-5.811c-1.323-2.077-2.081-4.345-2.268-6.803c0-5.479,1.51-9.732,4.534-12.757
		c3.022-3.021,6.474-5.245,10.349-6.662c3.871-1.417,7.512-2.268,10.914-2.551c2.05-0.171,3.645-0.29,4.802-0.358
		c-0.651-0.044-1.328-0.068-2.036-0.068c-0.948,0-3.118,0.142-6.52,0.426c-3.401,0.283-7.043,1.133-10.915,2.551
		c-3.875,1.417-7.325,3.641-10.347,6.662c-3.024,3.025-4.536,7.277-4.536,12.757c0.187,2.458,0.944,4.727,2.269,6.803
		C397.136,85.803,398.88,87.738,401.246,89.722z"/>
	<path fill="#EAEAE9" d="M429.737,70.871c1.701,0.757,3.493,2.175,5.385,4.252h0.568c0.316,0,1.061-0.354,2.185-1.025
		c-1.525-1.512-2.988-2.604-4.385-3.227c-1.701-0.753-3.31-1.134-4.82-1.134c-0.887,0-1.684,0.041-2.434,0.102
		C427.356,69.994,428.521,70.333,429.737,70.871z"/>
	<path fill="#EAEAE9" d="M406.558,127.568c-3.215-1.325-5.669-2.879-7.369-4.678c-1.701-1.794-2.791-3.686-3.26-5.67
		c-0.475-1.984-0.71-3.729-0.71-5.244c0-6.047,1.321-10.157,3.97-12.332c2.037-1.672,4.137-2.697,6.29-3.082
		c-0.562-0.105-1.156-0.178-1.822-0.178c-2.835,0-5.577,1.09-8.223,3.26c-2.647,2.175-3.968,6.285-3.968,12.332
		c0,1.515,0.235,3.26,0.709,5.244c0.47,1.984,1.558,3.876,3.259,5.67c1.702,1.798,4.155,3.353,7.37,4.678
		c3.213,1.319,7.559,1.984,13.04,1.984c0.472,0,0.956-0.028,1.436-0.047C412.879,129.339,409.301,128.694,406.558,127.568z"/>
</g>
<g>
	<path fill="#EAEAE9" d="M464.529,128.276c-2.553-0.664-4.678-1.892-6.379-3.684c-1.701-1.795-2.977-4.346-3.827-7.654
		c-0.851-3.306-1.089-7.699-0.709-13.183c-0.19,0.757-0.097-0.66,0.283-4.252c0.377-3.588,0.803-8.505,1.276-14.741
		c0.47-6.236,0.943-13.324,1.418-21.262c0.469-7.937,0.708-15.875,0.708-23.812c0-7.937-0.282-15.401-0.85-22.395
		c-0.564-6.924-1.59-12.644-3.079-17.161C452.112,0.054,450.85,0,449.578,0c1.511,4.536,2.552,10.303,3.119,17.293
		c0.567,6.994,0.849,14.458,0.849,22.395c0,7.938-0.237,15.875-0.707,23.812c-0.474,7.938-0.948,15.025-1.417,21.262
		c-0.475,6.236-0.9,11.153-1.276,14.741c-0.38,3.592-0.473,5.009-0.283,4.252c-0.381,5.483-0.142,9.877,0.709,13.183
		c0.851,3.308,2.126,5.859,3.826,7.654c1.701,1.793,3.827,3.02,6.38,3.684c2.55,0.659,5.337,0.992,8.362,0.992
		c0.444,0,0.832-0.039,1.198-0.091C468.283,129.04,466.342,128.745,464.529,128.276z"/>
	<path fill="#EAEAE9" d="M474.951,71.438c-0.289,0.3-0.549,0.582-0.822,0.872c-0.225,1.694-0.462,3.394-0.671,5.08
		c1.32-1.7,3.07-3.685,5.245-5.953c2.17-2.268,4.628-4.439,7.371-6.521c2.735-2.077,5.62-3.827,8.646-5.244
		c2.382-1.118,4.828-1.779,7.33-2.015c-0.972-0.072-1.563-0.112-1.728-0.112c-3.216,0-6.334,0.708-9.354,2.127
		c-3.025,1.417-5.91,3.167-8.646,5.244C479.578,66.999,477.121,69.17,474.951,71.438z"/>
	<path fill="#EAEAE9" d="M506.341,144.434c-2.267-0.85-4.393-2.125-6.378-3.827c-1.984-1.701-3.594-3.828-4.818-6.378
		c-1.231-2.551-1.843-5.528-1.843-8.93l1.701-44.506c0-0.568-0.099-1.227-0.284-1.985c-0.381-1.51-1.134-2.268-2.269-2.268
		c-0.664,0-1.415,0.242-2.245,0.697c0.328,0.374,0.59,0.885,0.762,1.57c0.186,0.758,0.283,1.418,0.283,1.985l-1.701,44.506
		c0,3.402,0.612,6.379,1.844,8.93c1.226,2.551,2.835,4.678,4.818,6.378c1.984,1.701,4.109,2.977,6.378,3.827
		c2.268,0.85,4.439,1.275,6.52,1.275c0.669,0,1.265-0.052,1.817-0.133C509.442,145.396,507.917,145.024,506.341,144.434z"/>
</g>
<g>
	<path fill="#0B70B5" d="M47.782,208.555H32.862v-27.299h14.919v1.754H34.768v10.326h12.286v1.756H34.768v11.706h13.014V208.555z"/>
	<path fill="#0B70B5" d="M69.447,208.555v-13.165c0-2.041-0.429-3.527-1.288-4.454c-0.859-0.927-2.191-1.392-3.996-1.392
		c-2.427,0-4.205,0.614-5.331,1.839c-1.126,1.226-1.69,3.216-1.69,5.967v11.204h-1.849v-20.298h1.569l0.354,2.783h0.113
		c1.318-2.117,3.666-3.175,7.039-3.175c4.606,0,6.909,2.472,6.909,7.413v13.277H69.447z"/>
	<path fill="#0B70B5" d="M95.482,188.257v1.288l-4.202,0.261c1.121,1.395,1.681,2.926,1.681,4.594c0,1.955-0.65,3.539-1.952,4.752
		c-1.3,1.215-3.046,1.821-5.237,1.821c-0.921,0-1.569-0.039-1.942-0.113c-0.734,0.387-1.295,0.841-1.68,1.364
		c-0.386,0.522-0.58,1.078-0.58,1.661c0,0.648,0.245,1.123,0.738,1.419c0.491,0.3,1.316,0.448,2.474,0.448h3.549
		c2.203,0,3.89,0.445,5.06,1.335c1.17,0.89,1.755,2.206,1.755,3.949c0,2.139-0.869,3.79-2.604,4.955
		c-1.737,1.163-4.211,1.743-7.424,1.743c-2.551,0-4.528-0.49-5.928-1.474c-1.4-0.982-2.101-2.349-2.101-4.105
		c0-1.393,0.433-2.551,1.298-3.472c0.865-0.919,2.038-1.548,3.521-1.886c-0.61-0.262-1.099-0.629-1.466-1.109
		c-0.368-0.481-0.552-1.029-0.552-1.651c0-1.357,0.865-2.554,2.596-3.586c-1.183-0.486-2.104-1.249-2.764-2.287
		c-0.661-1.04-0.99-2.232-0.99-3.577c0-2.028,0.644-3.657,1.932-4.882c1.289-1.228,3.029-1.84,5.22-1.84
		c1.332,0,2.364,0.131,3.099,0.393H95.482z M79.05,211.988c0,2.788,2.073,4.18,6.219,4.18c5.328,0,7.991-1.698,7.991-5.096
		c0-1.218-0.416-2.101-1.251-2.65c-0.834-0.547-2.184-0.821-4.051-0.821h-3.324C80.911,207.602,79.05,209.064,79.05,211.988z
		 M80.6,194.587c0,1.569,0.477,2.785,1.429,3.651c0.952,0.866,2.225,1.298,3.818,1.298c1.694,0,2.992-0.431,3.894-1.289
		c0.903-0.859,1.355-2.104,1.355-3.734c0-1.73-0.465-3.028-1.392-3.894c-0.927-0.864-2.225-1.298-3.893-1.298
		c-1.618,0-2.891,0.464-3.818,1.392C81.063,191.64,80.6,192.931,80.6,194.587z"/>
	<path fill="#0B70B5" d="M103.292,208.555h-1.849v-29.056h1.849V208.555z"/>
	<path fill="#0B70B5" d="M111.625,182.618c0-1.195,0.392-1.793,1.176-1.793c0.386,0,0.689,0.157,0.906,0.468
		c0.218,0.311,0.327,0.753,0.327,1.325c0,0.56-0.109,1.003-0.327,1.325c-0.217,0.324-0.52,0.485-0.906,0.485
		C112.017,184.429,111.625,183.826,111.625,182.618z M113.735,208.555h-1.849v-20.298h1.849V208.555z"/>
	<path fill="#0B70B5" d="M134.914,203.27c0,1.819-0.691,3.215-2.072,4.193c-1.382,0.976-3.343,1.466-5.882,1.466
		c-2.713,0-4.868-0.42-6.461-1.251v-1.999c2.042,1.023,4.196,1.532,6.461,1.532c2.004,0,3.526-0.333,4.566-1
		c1.039-0.665,1.559-1.551,1.559-2.661c0-1.019-0.415-1.88-1.242-2.577c-0.828-0.696-2.188-1.383-4.08-2.054
		c-2.029-0.735-3.455-1.367-4.276-1.896c-0.822-0.529-1.441-1.125-1.857-1.794c-0.418-0.664-0.626-1.476-0.626-2.436
		c0-1.519,0.638-2.719,1.914-3.604c1.276-0.884,3.059-1.326,5.349-1.326c2.191,0,4.27,0.412,6.237,1.232l-0.691,1.682
		c-1.992-0.822-3.841-1.233-5.546-1.233c-1.655,0-2.968,0.274-3.94,0.822c-0.97,0.548-1.456,1.307-1.456,2.279
		c0,1.058,0.377,1.904,1.129,2.54c0.753,0.634,2.226,1.343,4.416,2.129c1.83,0.659,3.161,1.254,3.996,1.783
		c0.833,0.529,1.459,1.129,1.876,1.802C134.706,201.57,134.914,202.36,134.914,203.27z"/>
	<path fill="#0B70B5" d="M156.095,208.555v-13.165c0-2.041-0.43-3.527-1.288-4.454c-0.859-0.927-2.191-1.392-3.997-1.392
		c-2.427,0-4.205,0.614-5.331,1.839c-1.126,1.226-1.69,3.216-1.69,5.967v11.204h-1.848v-29.056h1.848v9.243l-0.093,2.596h0.13
		c0.76-1.219,1.718-2.104,2.876-2.651c1.158-0.548,2.595-0.823,4.313-0.823c4.606,0,6.909,2.472,6.909,7.413v13.277H156.095z"/>
	<path fill="#0B70B5" d="M185.57,189.863h-4.78v18.692h-1.849v-18.692h-3.771v-1.082l3.771-0.691v-1.569
		c0-2.49,0.458-4.317,1.373-5.479c0.915-1.165,2.412-1.746,4.491-1.746c1.12,0,2.241,0.167,3.361,0.503l-0.429,1.606
		c-0.997-0.311-1.986-0.466-2.969-0.466c-1.444,0-2.468,0.426-3.072,1.279c-0.604,0.853-0.905,2.238-0.905,4.155v1.886h4.78V189.863
		z"/>
	<path fill="#0B70B5" d="M208.075,198.378c0,3.311-0.801,5.897-2.408,7.758c-1.605,1.86-3.822,2.792-6.647,2.792
		c-1.781,0-3.349-0.433-4.706-1.29c-1.357-0.858-2.396-2.09-3.118-3.695c-0.722-1.606-1.083-3.461-1.083-5.566
		c0-3.312,0.804-5.892,2.409-7.74c1.605-1.849,3.809-2.773,6.61-2.773c2.788,0,4.976,0.937,6.564,2.811
		C207.282,192.549,208.075,195.116,208.075,198.378z M192.054,198.378c0,2.789,0.613,4.962,1.84,6.527
		c1.226,1.561,2.959,2.341,5.2,2.341c2.242,0,3.974-0.78,5.201-2.341c1.226-1.564,1.839-3.738,1.839-6.527
		c0-2.801-0.619-4.973-1.858-6.518c-1.239-1.543-2.978-2.315-5.219-2.315s-3.968,0.769-5.182,2.306
		C192.661,193.389,192.054,195.564,192.054,198.378z"/>
	<path fill="#0B70B5" d="M223.485,187.865c0.859,0,1.78,0.087,2.764,0.261l-0.355,1.774c-0.847-0.211-1.725-0.317-2.633-0.317
		c-1.73,0-3.15,0.735-4.257,2.204c-1.108,1.469-1.662,3.323-1.662,5.565v11.204h-1.848v-20.298h1.567l0.188,3.66h0.13
		c0.833-1.493,1.724-2.543,2.67-3.146C220.996,188.167,222.141,187.865,223.485,187.865z"/>
	<path fill="#0B70B5" d="M265.094,194.644c0,4.581-1.2,8.045-3.604,10.389c-2.402,2.349-5.932,3.522-10.584,3.522h-6.535v-27.299
		h7.373c4.357,0,7.669,1.138,9.943,3.416C263.96,186.951,265.094,190.274,265.094,194.644z M263.022,194.718
		c0-3.909-0.992-6.85-2.979-8.824c-1.985-1.972-4.9-2.959-8.746-2.959h-5.022v23.941h4.52
		C258.945,206.876,263.022,202.821,263.022,194.718z"/>
	<path fill="#0B70B5" d="M280.895,208.929c-2.949,0-5.25-0.91-6.899-2.728c-1.65-1.816-2.474-4.363-2.474-7.636
		c0-3.238,0.796-5.829,2.39-7.778c1.593-1.948,3.741-2.922,6.443-2.922c2.39,0,4.274,0.834,5.656,2.503
		c1.382,1.667,2.074,3.933,2.074,6.797v1.493h-14.622c0.026,2.79,0.676,4.919,1.952,6.387c1.276,1.471,3.103,2.202,5.479,2.202
		c1.157,0,2.175-0.081,3.054-0.241c0.878-0.162,1.988-0.511,3.333-1.045v1.68c-1.147,0.496-2.204,0.837-3.175,1.018
		C283.137,208.838,282.066,208.929,280.895,208.929z M280.355,189.508c-1.956,0-3.523,0.645-4.707,1.933
		c-1.182,1.289-1.874,3.146-2.072,5.573h12.549c0-2.352-0.512-4.191-1.532-5.518C283.572,190.171,282.159,189.508,280.355,189.508z"
		/>
	<path fill="#0B70B5" d="M299.929,208.555l-7.843-20.298h1.903l5.247,13.8c0.698,1.767,1.221,3.311,1.569,4.63h0.11
		c0.512-1.693,1.034-3.25,1.57-4.67l5.246-13.761h1.904l-7.842,20.298H299.929z"/>
	<path fill="#0B70B5" d="M323.031,208.929c-2.949,0-5.25-0.91-6.899-2.728c-1.65-1.816-2.474-4.363-2.474-7.636
		c0-3.238,0.796-5.829,2.39-7.778c1.593-1.948,3.741-2.922,6.443-2.922c2.39,0,4.275,0.834,5.656,2.503
		c1.382,1.667,2.074,3.933,2.074,6.797v1.493h-14.622c0.026,2.79,0.676,4.919,1.952,6.387c1.275,1.471,3.102,2.202,5.479,2.202
		c1.157,0,2.175-0.081,3.054-0.241c0.878-0.162,1.988-0.511,3.333-1.045v1.68c-1.146,0.496-2.204,0.837-3.175,1.018
		C325.273,208.838,324.202,208.929,323.031,208.929z M322.491,189.508c-1.956,0-3.523,0.645-4.707,1.933
		c-1.182,1.289-1.874,3.146-2.072,5.573h12.549c0-2.352-0.512-4.191-1.532-5.518C325.707,190.171,324.294,189.508,322.491,189.508z"
		/>
	<path fill="#0B70B5" d="M339.468,208.555h-1.848v-29.056h1.848V208.555z"/>
	<path fill="#0B70B5" d="M364.848,198.378c0,3.311-0.802,5.897-2.409,7.758c-1.605,1.86-3.821,2.792-6.647,2.792
		c-1.78,0-3.349-0.433-4.704-1.29c-1.358-0.858-2.398-2.09-3.119-3.695c-0.723-1.606-1.084-3.461-1.084-5.566
		c0-3.312,0.804-5.892,2.409-7.74c1.606-1.849,3.81-2.773,6.609-2.773c2.79,0,4.977,0.937,6.566,2.811
		C364.056,192.549,364.848,195.116,364.848,198.378z M348.828,198.378c0,2.789,0.614,4.962,1.84,6.527
		c1.226,1.561,2.96,2.341,5.199,2.341c2.242,0,3.976-0.78,5.201-2.341c1.227-1.564,1.839-3.738,1.839-6.527
		c0-2.801-0.618-4.973-1.857-6.518c-1.24-1.543-2.979-2.315-5.221-2.315c-2.24,0-3.968,0.769-5.182,2.306
		C349.435,193.389,348.828,195.564,348.828,198.378z"/>
	<path fill="#0B70B5" d="M380.95,208.929c-3.124,0-5.401-1.169-6.834-3.512h-0.131l0.057,1.567c0.049,0.923,0.074,1.932,0.074,3.024
		v7.727h-1.848v-29.478h1.566l0.355,2.894h0.113c1.393-2.189,3.621-3.286,6.685-3.286c2.738,0,4.827,0.9,6.265,2.698
		c1.436,1.799,2.156,4.417,2.156,7.852c0,3.336-0.757,5.922-2.27,7.76C385.628,208.011,383.565,208.929,380.95,208.929z
		 M380.913,207.284c2.078,0,3.688-0.77,4.828-2.314c1.138-1.545,1.707-3.703,1.707-6.48c0-5.963-2.153-8.944-6.46-8.944
		c-2.364,0-4.102,0.651-5.209,1.951c-1.109,1.301-1.663,3.421-1.663,6.359v0.597c0,3.176,0.532,5.439,1.596,6.797
		C376.776,206.608,378.509,207.284,380.913,207.284z"/>
	<path fill="#0B70B5" d="M422.185,208.555v-13.314c0-1.979-0.388-3.424-1.157-4.331c-0.772-0.91-1.956-1.364-3.55-1.364
		c-2.078,0-3.614,0.574-4.611,1.719c-0.996,1.145-1.493,2.944-1.493,5.395v11.896h-1.887v-13.874c0-3.424-1.569-5.136-4.705-5.136
		c-2.128,0-3.68,0.619-4.65,1.859c-0.97,1.238-1.455,3.22-1.455,5.947v11.204h-1.849v-20.298h1.53l0.392,2.783h0.112
		c0.561-1.009,1.357-1.79,2.391-2.345c1.033-0.553,2.171-0.831,3.417-0.831c3.198,0,5.253,1.202,6.162,3.604h0.074
		c0.66-1.158,1.547-2.048,2.661-2.67c1.113-0.623,2.382-0.934,3.8-0.934c2.216,0,3.879,0.592,4.985,1.774
		c1.108,1.184,1.662,3.062,1.662,5.639v13.277H422.185z"/>
	<path fill="#0B70B5" d="M440.582,208.929c-2.949,0-5.25-0.91-6.899-2.728c-1.65-1.816-2.474-4.363-2.474-7.636
		c0-3.238,0.797-5.829,2.39-7.778c1.593-1.948,3.741-2.922,6.443-2.922c2.39,0,4.275,0.834,5.656,2.503
		c1.382,1.667,2.074,3.933,2.074,6.797v1.493H433.15c0.026,2.79,0.676,4.919,1.952,6.387c1.276,1.471,3.103,2.202,5.479,2.202
		c1.157,0,2.175-0.081,3.054-0.241c0.878-0.162,1.988-0.511,3.334-1.045v1.68c-1.148,0.496-2.204,0.837-3.175,1.018
		S441.753,208.929,440.582,208.929z M440.041,189.508c-1.956,0-3.523,0.645-4.707,1.933c-1.182,1.289-1.874,3.146-2.071,5.573
		h12.548c0-2.352-0.512-4.191-1.531-5.518C443.259,190.171,441.845,189.508,440.041,189.508z"/>
	<path fill="#0B70B5" d="M469.325,208.555v-13.165c0-2.041-0.43-3.527-1.288-4.454c-0.858-0.927-2.19-1.392-3.996-1.392
		c-2.427,0-4.203,0.614-5.331,1.839c-1.127,1.226-1.69,3.216-1.69,5.967v11.204h-1.847v-20.298h1.567l0.354,2.783h0.113
		c1.319-2.117,3.665-3.175,7.04-3.175c4.605,0,6.908,2.472,6.908,7.413v13.277H469.325z"/>
	<path fill="#0B70B5" d="M484.882,207.284c1.172,0,2.192-0.099,3.064-0.3v1.496c-0.897,0.297-1.93,0.448-3.101,0.448
		c-1.792,0-3.114-0.48-3.968-1.438c-0.853-0.957-1.278-2.467-1.278-4.518v-13.11h-3.006v-1.082l3.006-0.842l0.934-4.592h0.953v4.911
		h5.957v1.605h-5.957v12.846c0,1.558,0.272,2.709,0.82,3.457C482.855,206.91,483.712,207.284,484.882,207.284z"/>
</g>
<path fill="#0B70B5" d="M3.753,0c3.402,0,6.756,0.284,10.064,0.851c3.304,0.567,6.329,1.656,9.071,3.26
	c2.737,1.607,4.913,3.783,6.52,6.52c1.604,2.742,2.41,6.192,2.41,10.348c0,0.381-0.239,2.316-0.708,5.811
	c-0.474,3.5-1.09,7.796-1.843,12.899c-0.757,5.103-1.608,10.821-2.551,17.15c-0.948,6.335-1.798,12.615-2.552,18.852
	c-0.757,6.236-1.373,12.048-1.842,17.435c-0.474,5.386-0.708,9.779-0.708,13.181c0,0.948,0.093,3.545,0.284,7.796
	c0.186,4.251,1.134,8.269,2.835,12.048c0.377,0.566,0.851,1.133,1.417,1.699c0.567,0.567,0.851,1.135,0.851,1.702
	c-0.381,1.133-1.608,1.701-3.685,1.701c-3.592,0-6.617-0.85-9.072-2.551c-2.458-1.701-4.442-3.92-5.953-6.663
	c-1.515-2.737-2.601-5.713-3.26-8.93c-0.664-3.21-0.992-6.422-0.992-9.638c0-8.881,0.425-17.527,1.275-25.938
	c0.851-8.407,1.56-16.868,2.127-25.372c0.567-8.504,0.66-17.054,0.284-25.655C7.342,17.909,6.021,9.072,3.753,0z"/>
<path fill="#0B70B5" d="M84.545,79.659c0.186,2.835-0.381,5.67-1.701,8.504c-1.325,2.835-3.216,5.435-5.67,7.797
	c-2.459,2.364-5.484,4.252-9.072,5.669c-3.592,1.417-7.468,2.126-11.623,2.126c-2.834,0-5.386-0.376-7.653-1.133
	c0.567,2.648,1.462,4.774,2.693,6.378c1.227,1.607,2.502,2.835,3.827,3.686c1.32,0.851,2.644,1.418,3.968,1.7
	c1.32,0.284,2.454,0.523,3.402,0.708c2.644,0.381,5.005,0.05,7.087-0.991c2.077-1.037,3.92-2.22,5.527-3.544
	c1.604-1.32,2.928-2.596,3.969-3.827c1.037-1.227,1.843-1.843,2.409-1.843c0.753,0,1.135,0.665,1.135,1.984
	c0,3.216-0.851,6.051-2.552,8.504c-1.7,2.459-3.924,4.536-6.661,6.237c-2.742,1.701-5.861,2.977-9.355,3.826
	c-3.499,0.852-7.043,1.179-10.63,0.992c-8.127-0.38-14.457-3.02-18.993-7.936c-4.536-4.913-6.994-11.525-7.371-19.844
	c0-11.339,2.976-20.645,8.93-27.923c5.954-7.273,14.033-10.914,24.238-10.914c6.99,0,12.757,1.515,17.292,4.536
	C82.277,67.376,84.545,72.479,84.545,79.659z M47.976,97.235c1.887-0.567,3.871-1.227,5.953-1.984
	c2.077-0.754,4.013-1.795,5.811-3.119c1.794-1.319,3.26-2.834,4.395-4.535c1.133-1.701,1.7-3.872,1.7-6.521
	c0-2.644-0.615-4.961-1.842-6.945c-1.231-1.985-2.977-2.976-5.245-2.976c-3.216,0-5.86,1.749-7.937,5.244
	c-2.082,3.499-3.119,9.213-3.119,17.15c0,0.757,0.044,1.417,0.142,1.984C47.927,96.101,47.976,96.668,47.976,97.235z"/>
<path fill="#0B70B5" d="M126.784,112.259c-2.458,3.783-5.812,6.945-10.063,9.497c-4.252,2.551-8.646,3.827-13.182,3.827
	c-4.726,0-8.788-1.321-12.189-3.969c-3.401-2.645-5.103-6.423-5.103-11.339c0-3.021,0.753-5.954,2.268-8.788
	c1.51-2.835,3.543-5.386,6.095-7.654c2.551-2.268,5.62-4.111,9.212-5.529c3.588-1.417,7.371-2.126,11.339-2.126
	c0.944,0,1.746,0.097,2.41,0.284c0.661,0.19,1.369,0.283,2.126,0.283c0.943,0,1.417-0.659,1.417-1.984
	c0-2.645-0.991-4.581-2.976-5.812c-1.984-1.227-4.35-1.984-7.087-2.268c-2.742-0.283-5.527-0.187-8.363,0.284
	c-2.835,0.474-5.103,0.992-6.803,1.559c-0.758,0.381-1.515,0.238-2.268-0.426c-0.758-0.659-1.134-1.559-1.134-2.693
	c0-1.701,0.186-3.446,0.568-5.245c0.376-1.794,1.133-3.446,2.267-4.961c1.134-1.51,2.737-2.737,4.819-3.685
	c2.078-0.943,4.819-1.418,8.222-1.418c2.268,0,5.196,0.191,8.788,0.567c3.588,0.381,7.131,1.373,10.63,2.977
	c3.496,1.607,6.472,3.875,8.93,6.804c2.453,2.932,3.686,6.944,3.686,12.047c-0.191,1.701-0.382,4.775-0.567,9.214
	c-0.191,4.442-0.097,9.026,0.283,13.749c0.376,4.726,1.085,9.071,2.126,13.041c1.037,3.968,2.596,6.427,4.678,7.37
	c0,0.753-0.098,1.461-0.284,2.125c-0.19,0.662-1.608,0.994-4.252,0.994c-0.948,0-2.081-0.19-3.401-0.568
	c-1.325-0.38-2.742-1.133-4.253-2.267c-1.514-1.135-2.976-2.787-4.393-4.962C128.911,119.019,127.728,116.042,126.784,112.259z
	 M107.224,107.44c0,1.515,0.518,2.883,1.56,4.11c1.037,1.232,2.502,1.843,4.394,1.843c1.701,0,3.73-0.567,6.095-1.701
	c2.361-1.134,4.203-2.737,5.527-4.819c-0.38-0.752-0.566-1.936-0.566-3.543c0-1.604-0.098-3.119-0.284-4.536
	c-0.19-1.417-0.424-2.693-0.709-3.827c-0.283-1.133-0.806-1.701-1.559-1.701c-1.701,0-3.402,0.474-5.103,1.418
	c-1.701,0.948-3.26,2.126-4.677,3.543c-1.418,1.418-2.552,2.933-3.402,4.536C107.649,104.371,107.224,105.929,107.224,107.44z"/>
<path fill="#0B70B5" d="M179.508,106.306c6.046,4.918,10.724,8.743,14.033,11.48c3.303,2.743,6.138,5.104,8.504,7.087
	c2.36,1.985,4.771,3.872,7.227,5.671c2.455,1.794,5.763,4.203,9.924,7.229c1.319,0.943,1.368,2.361,0.142,4.253
	c-1.232,1.887-3.167,3.588-5.811,5.102c-2.651,1.511-5.577,2.411-8.789,2.693c-3.215,0.284-5.953-0.614-8.221-2.693
	c-2.267-1.514-4.443-3.542-6.519-6.095c-2.083-2.551-4.301-5.385-6.662-8.504c-2.365-3.119-4.917-6.519-7.654-10.205
	c-2.742-3.685-6.001-7.512-9.779-11.48c-0.948,0.19-1.657,1.04-2.127,2.551c-0.474,1.515-0.708,3.26-0.708,5.245
	c0,1.983,0.186,3.875,0.567,5.669c0.376,1.793,1.036,2.977,1.984,3.542c-0.381,0.187-0.948,0.377-1.701,0.567
	c-0.757,0.186-2.458,0.284-5.102,0.284c-2.458,0-5.01-1.184-7.654-3.544c-2.649-2.36-3.969-5.429-3.969-9.213
	c0.187-2.835,0.66-7.229,1.417-13.182c0.753-5.953,1.369-12.141,1.843-18.568c0.469-6.423,0.66-12.518,0.567-18.285
	c-0.098-5.763-0.993-9.873-2.693-12.331c0.753,0,1.794-0.045,3.118-0.143c1.32-0.092,2.738-0.142,4.253-0.142
	c2.268,0,4.438,0.098,6.52,0.284c2.077,0.19,3.871,0.708,5.386,1.559c1.511,0.851,2.596,2.082,3.26,3.686
	c0.66,1.607,0.612,3.733-0.142,6.378c3.212-1.51,6.52-2.693,9.921-3.543c3.402-0.851,6.707-1.275,9.922-1.275
	c5.102,0,9.071,1.182,11.906,3.543c2.835,2.365,4.253,6.286,4.253,11.765c0,2.648-0.332,5.342-0.992,8.079
	c-0.664,2.742-1.94,5.386-3.827,7.938c-1.892,2.551-4.633,5.058-8.221,7.511C190.09,101.677,185.364,104.039,179.508,106.306z
	 M165.901,99.786c0,1.702,0.659,2.552,1.984,2.552c1.32,0,3.118-0.567,5.386-1.702c2.268-1.133,4.536-2.644,6.804-4.535
	c2.268-1.887,4.252-4.013,5.954-6.379c1.701-2.361,2.551-4.676,2.551-6.945c0-3.021-0.709-4.864-2.126-5.528
	c-1.417-0.659-3.167-0.992-5.244-0.992c-3.97,0-7.136,1.892-9.497,5.669C169.347,85.71,167.412,91.664,165.901,99.786z"/>
<path fill="#0B70B5" d="M209.554,59.248c2.078,0,4.439-0.044,7.089-0.142c2.643-0.093,5.195,0.142,7.652,0.708
	c2.454,0.568,4.581,1.701,6.379,3.402c1.792,1.7,2.786,4.35,2.976,7.938c3.21-3.211,7.087-6.188,11.623-8.93
	c4.535-2.737,9.162-4.11,13.886-4.11c0.568,0,1.417,0.048,2.553,0.141c1.134,0.097,2.312,0.568,3.543,1.418
	c1.227,0.85,2.219,2.365,2.977,4.535c0.752,2.175,0.942,5.342,0.567,9.497c-0.567,4.916-1.042,9.828-1.417,14.741
	c-0.383,4.35-0.665,9.072-0.852,14.174c-0.189,5.103-0.282,9.921-0.282,14.458c0,5.102,0.282,9.213,0.85,12.33
	c0.567,3.119,1.134,5.621,1.701,7.513c0.566,1.887,1.133,3.26,1.701,4.11c0.566,0.852,0.85,1.652,0.85,2.411
	c0,1.319-0.85,1.983-2.551,1.983c-1.892,0-3.924-0.474-6.096-1.417c-2.175-0.948-4.251-2.409-6.236-4.394
	c-1.982-1.984-3.64-4.491-4.957-7.511c-1.324-3.026-1.984-6.521-1.984-10.489c0-10.206,0-18.329,0-24.38
	c0-6.046-0.097-10.582-0.283-13.606c-0.191-3.021-0.426-4.962-0.708-5.812c-0.284-0.851-0.71-1.276-1.275-1.276
	c-0.948,0-2.224,0.665-3.828,1.985c-1.608,1.324-3.261,2.835-4.961,4.535c-1.7,1.701-3.358,3.451-4.961,5.244
	c-1.608,1.799-2.791,3.167-3.545,4.111c-1.133,5.86-2.082,11.578-2.835,17.15c-0.755,5.577-1.133,9.214-1.133,10.915
	c0,0.947,0.142,2.125,0.426,3.542c0.284,1.418,0.896,2.693,1.844,3.827c-2.082,1.135-4.209,1.653-6.38,1.559
	c-2.175-0.096-4.209-0.614-6.094-1.559c-1.891-0.946-3.403-2.453-4.536-4.534c-1.133-2.079-1.608-4.536-1.418-7.372
	c0.188-3.021,0.568-7.273,1.133-12.756c0.568-5.479,0.994-11.149,1.277-17.009c0.282-5.856,0.282-11.291,0-16.3
	C211.964,64.873,211.065,61.33,209.554,59.248z"/>
<path fill="#2FBFBC" d="M348.169,109.425c0.567,0.566,0.85,1.324,0.85,2.268c0,0.758-0.191,1.56-0.566,2.41
	c-0.38,0.85-1.184,1.892-2.409,3.118c-1.232,1.231-3.117,2.79-5.67,4.678c-2.552,1.89-6.002,4.344-10.346,7.369
	c-0.568,4.723-1.136,9.259-1.701,13.608c-0.568,4.345-1.042,9.165-1.417,14.457c-0.383,3.588-1.136,6.805-2.27,9.64
	c-0.948,2.452-2.409,4.628-4.394,6.519c-1.983,1.887-4.775,2.835-8.362,2.835c-2.649,0-5.104-0.708-7.371-2.125
	c-2.267-1.417-4.253-3.217-5.953-5.388c-1.701-2.173-3.025-4.536-3.968-7.087c-0.949-2.551-1.418-5.058-1.418-7.513
	c0-3.783,0.801-7.135,2.409-10.063c1.604-2.931,3.496-5.434,5.669-7.512c2.171-2.082,4.395-3.782,6.663-5.103
	c2.268-1.323,4.154-2.365,5.67-3.119c0.186-2.082,0.326-4.295,0.426-6.661c0.091-2.362,0.14-4.771,0.14-7.23
	c-3.592,4.917-7.371,8.036-11.339,9.355c-3.969,1.326-7.087,1.985-9.354,1.985c-4.916,0-8.788-1.178-11.622-3.544
	c-2.835-2.36-5.01-5.054-6.521-8.079c-1.892-3.402-3.118-7.273-3.685-11.623c-1.325-5.289-1.231-10.817,0.282-16.585
	c1.511-5.761,4.062-11.056,7.655-15.874c3.587-4.819,7.938-8.832,13.039-12.047c5.104-3.211,10.676-4.82,16.727-4.82
	c4.912,0,9.165,0.616,12.756,1.843c3.588,1.231,6.522,2.834,8.789,4.819c2.267,1.984,3.969,4.11,5.102,6.378
	c1.135,2.268,1.701,4.443,1.701,6.521c0,2.649-0.709,4.253-2.125,4.819c-1.417,0.566-2.508,0.851-3.261,0.851
	c-1.134,0-2.127-0.376-2.978-1.135c-0.849-0.752-1.797-1.559-2.834-2.41c-1.042-0.85-2.365-1.652-3.969-2.409
	c-1.607-0.753-3.641-1.134-6.095-1.134c-3.969,0-7.893,0.899-11.764,2.693c-3.878,1.798-7.186,4.159-9.923,7.087
	c-2.742,2.932-4.773,6.334-6.095,10.205c-1.323,3.876-1.417,7.893-0.283,12.047c0.376,1.892,0.943,3.686,1.701,5.386
	c0.753,1.516,1.701,2.835,2.835,3.969c1.133,1.134,2.644,1.798,4.534,1.984c0.377,0,1.512-0.186,3.403-0.567
	c1.887-0.376,3.92-1.369,6.094-2.977c2.17-1.604,4.155-4.111,5.953-7.513c1.795-3.401,2.692-8.124,2.692-14.174
	c0-2.077-0.238-4.252-0.708-6.52c-0.474-2.267-1.466-4.154-2.976-5.67c0.375,0.191,1.036,0.284,1.984,0.284
	c0.754,0,1.603-0.044,2.551-0.142c0.943-0.093,1.985-0.143,3.119-0.143c1.701,0,3.445,0.143,5.244,0.426
	c1.794,0.283,3.401,0.85,4.819,1.7c1.417,0.851,2.596,2.082,3.543,3.686c0.944,1.607,1.416,3.827,1.416,6.662
	c-0.38,2.835-0.756,5.953-1.133,9.354c-0.381,2.835-0.759,6.002-1.134,9.497c-0.38,3.499-0.758,7.136-1.134,10.914
	c5.29-2.645,9.399-5.053,12.331-7.229C346.419,110.23,347.978,109.238,348.169,109.425z M310.466,159.602
	c0.375-3.027,0.753-5.953,1.134-8.788c0.377-2.835,0.753-5.861,1.133-9.071c-2.081,1.701-3.684,3.445-4.817,5.243
	c-1.136,1.794-1.701,3.638-1.701,5.53C306.214,155.349,307.631,157.71,310.466,159.602z"/>
<path fill="#2FBFBC" d="M341.081,0c3.403,0,6.754,0.284,10.064,0.851c3.307,0.567,6.331,1.656,9.072,3.26
	c2.738,1.607,4.912,3.783,6.522,6.52c1.602,2.742,2.407,6.192,2.407,10.348c0,0.381-0.237,2.316-0.709,5.811
	c-0.472,3.5-1.088,7.796-1.841,12.899c-0.758,5.103-1.608,10.821-2.553,17.15c-0.946,6.335-1.798,12.615-2.552,18.852
	c-0.755,6.236-1.371,12.048-1.842,17.435c-0.473,5.386-0.708,9.779-0.708,13.181c0,0.948,0.093,3.545,0.283,7.796
	c0.186,4.251,1.134,8.269,2.835,12.048c0.375,0.566,0.85,1.133,1.418,1.699c0.565,0.567,0.849,1.135,0.849,1.702
	c-0.38,1.133-1.606,1.701-3.684,1.701c-3.593,0-6.617-0.85-9.072-2.551c-2.459-1.701-4.442-3.92-5.953-6.663
	c-1.515-2.737-2.599-5.713-3.26-8.93c-0.665-3.21-0.992-6.422-0.992-9.638c0-8.881,0.425-17.527,1.275-25.938
	c0.852-8.407,1.559-16.868,2.127-25.372c0.565-8.504,0.66-17.054,0.283-25.655C344.669,17.909,343.349,9.072,341.081,0z"/>
<path fill="#2FBFBC" d="M382.749,31.184c4.154,0,7.654,1.275,10.488,3.826c2.835,2.552,4.252,5.625,4.252,9.214
	c0,3.591-1.417,6.662-4.252,9.212c-2.834,2.552-6.334,3.827-10.488,3.827c-3.969,0-7.371-1.275-10.206-3.827
	c-2.835-2.551-4.252-5.621-4.252-9.212c0-3.588,1.417-6.662,4.252-9.214C375.378,32.459,378.781,31.184,382.749,31.184z
	 M386.435,120.481c0,0.947,0.143,2.125,0.425,3.542c0.283,1.418,0.895,2.693,1.842,3.827c-0.38,0.187-0.947,0.377-1.701,0.567
	c-0.756,0.186-2.457,0.284-5.102,0.284c-4.727,0-7.845-1.184-9.355-3.544c-1.514-2.36-2.267-5.429-2.267-9.213
	c0.185-3.968,0.469-8.313,0.85-13.04c0.377-3.968,0.661-8.456,0.852-13.465c0.186-5.005,0.469-10.157,0.85-15.45
	c0-2.454-0.049-4.486-0.142-6.095c-0.098-1.604-0.382-3.211-0.851-4.819c-0.474-1.604-1.09-2.879-1.844-3.827
	c1.887,0,4.204-0.044,6.945-0.142c2.738-0.093,5.388,0.142,7.94,0.708c2.55,0.568,4.721,1.798,6.518,3.685
	c1.794,1.892,2.693,4.82,2.693,8.789L386.435,120.481z"/>
<path fill="#2FBFBC" d="M423.285,82.211c2.645,1.133,5.527,2.458,8.647,3.968c3.117,1.515,6.045,3.309,8.787,5.386
	c2.735,2.082,5.005,4.492,6.803,7.229c1.795,2.742,2.693,5.909,2.693,9.497c0,3.592-0.991,6.711-2.978,9.354
	c-1.982,2.649-4.49,4.868-7.512,6.663c-3.025,1.793-6.335,3.119-9.922,3.968c-3.593,0.851-6.994,1.276-10.205,1.276
	c-5.483,0-9.828-0.665-13.041-1.984c-3.215-1.325-5.669-2.879-7.369-4.678c-1.701-1.794-2.791-3.686-3.26-5.67
	c-0.475-1.984-0.71-3.729-0.71-5.244c0-6.047,1.321-10.157,3.97-12.332c2.643-2.17,5.386-3.26,8.221-3.26
	c1.887,0,3.352,0.426,4.393,1.276c1.036,0.851,1.843,1.749,2.409,2.693c0.754,1.134,1.134,2.458,1.134,3.968
	c-3.215,0.948-5.342,2.033-6.377,3.26c-1.042,1.231-1.56,2.317-1.56,3.26c0,2.649,0.753,5.152,2.268,7.512
	c1.51,2.366,4.061,3.544,7.654,3.544c2.643,0,4.819-0.426,6.518-1.277c1.702-0.85,3.023-1.841,3.971-2.977
	c1.134-1.319,2.077-2.834,2.835-4.536c1.134-2.077,1.227-4.11,0.282-6.094c-0.947-1.985-2.363-3.827-4.253-5.528
	c-1.892-1.702-3.923-3.119-6.093-4.252c-2.176-1.134-4.018-1.984-5.529-2.551c-4.349-1.32-7.703-2.976-10.064-4.962
	c-2.365-1.984-4.11-3.919-5.244-5.811c-1.323-2.077-2.081-4.345-2.268-6.803c0-5.479,1.51-9.732,4.534-12.757
	c3.022-3.021,6.474-5.245,10.349-6.662c3.871-1.417,7.512-2.268,10.914-2.551c3.4-0.284,5.572-0.426,6.52-0.426
	c5.478,0,9.307,1.325,11.48,3.969c2.17,2.649,3.261,5.293,3.261,7.938c0,3.783-0.758,6.144-2.267,7.087
	c-1.517,0.948-2.46,1.417-2.835,1.417h-0.568c-1.892-2.077-3.685-3.495-5.385-4.252c-1.701-0.753-3.31-1.134-4.82-1.134
	c-4.535,0-7.277,0.806-8.221,2.409c-0.947,1.608-1.416,2.884-1.416,3.827c0,2.082,0.658,3.641,1.982,4.678
	C422.336,81.692,423.095,82.211,423.285,82.211z"/>
<path fill="#2FBFBC" d="M518.531,142.591c-0.38,2.079-2.267,3.119-5.67,3.119c-2.081,0-4.251-0.425-6.52-1.275
	c-2.267-0.85-4.393-2.125-6.378-3.827c-1.984-1.701-3.594-3.828-4.818-6.378c-1.231-2.551-1.843-5.528-1.843-8.93l1.701-44.506
	c0-0.568-0.099-1.227-0.284-1.985c-0.381-1.51-1.134-2.268-2.269-2.268c-1.515,0-3.45,1.183-5.811,3.544
	c-2.365,2.365-4.676,5.103-6.945,8.221c-2.267,3.119-4.252,6.193-5.953,9.214c-1.701,3.025-2.55,5.293-2.55,6.803
	c0,0.948,0.093,3.543,0.283,7.795c0.186,4.253,1.134,8.271,2.835,12.049c0.375,0.567,0.85,1.133,1.416,1.701
	c0.567,0.566,0.851,1.134,0.851,1.701c-0.38,1.134-1.608,1.7-3.685,1.7c-3.025,0-5.81-0.333-8.362-0.992
	c-2.553-0.664-4.678-1.892-6.379-3.684c-1.701-1.795-2.977-4.346-3.827-7.654c-0.851-3.306-1.089-7.699-0.709-13.183
	c-0.19,0.757-0.097-0.66,0.283-4.252c0.377-3.588,0.803-8.505,1.276-14.741c0.47-6.236,0.943-13.324,1.418-21.262
	c0.469-7.937,0.708-15.875,0.708-23.812c0-7.937-0.282-15.401-0.85-22.395c-0.567-6.99-1.608-12.757-3.118-17.293
	c3.401,0,6.754,0.284,10.063,0.851c3.305,0.567,6.331,1.656,9.071,3.26c2.737,1.607,4.911,3.783,6.521,6.52
	c1.603,2.742,2.409,6.192,2.409,10.348c0,0.566,0,1.183,0,1.842c0,0.664-0.097,1.373-0.283,2.126
	c-0.948,5.484-1.798,11.246-2.552,17.292c-0.758,5.103-1.607,10.728-2.55,16.867c-0.948,6.144-1.8,12.239-2.553,18.284
	c1.32-1.7,3.07-3.685,5.245-5.953c2.17-2.268,4.628-4.439,7.371-6.521c2.735-2.077,5.62-3.827,8.646-5.244
	c3.02-1.418,6.14-2.127,9.354-2.127c0.186,0,0.893,0.049,2.127,0.142c1.227,0.097,2.502,0.616,3.825,1.559
	c1.321,0.948,2.503,2.458,3.544,4.536c1.038,2.082,1.561,5.103,1.561,9.071c-0.382,4.35-0.948,9.735-1.701,16.158
	c-0.758,6.427-1.232,13.04-1.418,19.844c-0.19,6.804,0.143,13.28,0.992,19.418C513.855,134.415,515.696,139.19,518.531,142.591z"/>
</svg>
